<svg width="24" height="24" viewBox="0 0 24 24" fill="none" xmlns="http://www.w3.org/2000/svg">
<g clip-path="url(#clip0_103_46)">
<path fill-rule="evenodd" clip-rule="evenodd" d="M12 2C13.8785 1.9997 15.71 2.5872 17.2378 3.68014C18.7656 4.77308 19.9131 6.31668 20.5196 8.09459C21.126 9.8725 21.1609 11.7956 20.6194 13.5944C20.0779 15.3931 18.9871 16.9773 17.5 18.125C17.16 18.387 17 18.715 17 19C17 19.5304 16.7893 20.0391 16.4142 20.4142C16.0391 20.7893 15.5304 21 15 21H9C8.46957 21 7.96086 20.7893 7.58579 20.4142C7.21072 20.0391 7 19.5304 7 19C7 18.716 6.84 18.387 6.5 18.125C5.01287 16.9773 3.92211 15.3931 3.38062 13.5944C2.83912 11.7956 2.87403 9.8725 3.48045 8.09459C4.08687 6.31668 5.2344 4.77308 6.76221 3.68014C8.29002 2.5872 10.1215 1.9997 12 2ZM12 4C10.5614 4.00015 9.15786 4.44352 7.98025 5.26977C6.80264 6.09602 5.90818 7.26502 5.4186 8.61771C4.92902 9.97039 4.86809 11.4411 5.24409 12.8296C5.62009 14.2182 6.41478 15.4572 7.52 16.378L7.724 16.542C8.433 17.091 9 17.96 9 19H9.75V18C9.75 17.7348 9.85536 17.4804 10.0429 17.2929C10.2304 17.1054 10.4848 17 10.75 17C11.0152 17 11.2696 17.1054 11.4571 17.2929C11.6446 17.4804 11.75 17.7348 11.75 18V19H12.25V18C12.25 17.7348 12.3554 17.4804 12.5429 17.2929C12.7304 17.1054 12.9848 17 13.25 17C13.5152 17 13.7696 17.1054 13.9571 17.2929C14.1446 17.4804 14.25 17.7348 14.25 18V19H15C15 18.029 15.494 17.207 16.137 16.656L16.277 16.542C17.4337 15.6494 18.2822 14.4173 18.7035 13.0183C19.1247 11.6193 19.0977 10.1235 18.6261 8.74066C18.1545 7.35779 17.2621 6.15715 16.0738 5.307C14.8856 4.45686 13.4611 3.99984 12 4ZM8.5 9C9.16304 9 9.79893 9.26339 10.2678 9.73223C10.7366 10.2011 11 10.837 11 11.5C11 12.163 10.7366 12.7989 10.2678 13.2678C9.79893 13.7366 9.16304 14 8.5 14C7.83696 14 7.20108 13.7366 6.73223 13.2678C6.26339 12.7989 6 12.163 6 11.5C6 10.837 6.26339 10.2011 6.73223 9.73223C7.20108 9.26339 7.83696 9 8.5 9ZM15.5 9C16.163 9 16.7989 9.26339 17.2678 9.73223C17.7366 10.2011 18 10.837 18 11.5C18 12.163 17.7366 12.7989 17.2678 13.2678C16.7989 13.7366 16.163 14 15.5 14C14.837 14 14.2011 13.7366 13.7322 13.2678C13.2634 12.7989 13 12.163 13 11.5C13 10.837 13.2634 10.2011 13.7322 9.73223C14.2011 9.26339 14.837 9 15.5 9ZM8.5 11C8.36739 11 8.24022 11.0527 8.14645 11.1464C8.05268 11.2402 8 11.3674 8 11.5C8 11.6326 8.05268 11.7598 8.14645 11.8536C8.24022 11.9473 8.36739 12 8.5 12C8.63261 12 8.75979 11.9473 8.85356 11.8536C8.94732 11.7598 9 11.6326 9 11.5C9 11.3674 8.94732 11.2402 8.85356 11.1464C8.75979 11.0527 8.63261 11 8.5 11ZM15.5 11C15.3674 11 15.2402 11.0527 15.1464 11.1464C15.0527 11.2402 15 11.3674 15 11.5C15 11.6326 15.0527 11.7598 15.1464 11.8536C15.2402 11.9473 15.3674 12 15.5 12C15.6326 12 15.7598 11.9473 15.8536 11.8536C15.9473 11.7598 16 11.6326 16 11.5C16 11.3674 15.9473 11.2402 15.8536 11.1464C15.7598 11.0527 15.6326 11 15.5 11Z" fill="#F0F0F0"/>
</g>
<defs>
<clipPath id="clip0_103_46">
<rect width="24" height="24" fill="white"/>
</clipPath>
</defs>
</svg>
