<svg width="24" height="24" viewBox="0 0 24 24" fill="none" xmlns="http://www.w3.org/2000/svg">
<g clip-path="url(#clip0_103_38)">
<path fill-rule="evenodd" clip-rule="evenodd" d="M17.5 3C17.8105 3 18.1167 3.07229 18.3944 3.21115C18.6721 3.35 18.9137 3.55161 19.1 3.8L21.788 7.384C21.9229 7.56077 21.9947 7.77764 21.992 8H22V9C22.001 9.97453 21.6453 10.9157 21 11.646V19C21 19.5304 20.7893 20.0391 20.4142 20.4142C20.0391 20.7893 19.5304 21 19 21H5C4.46956 21 3.96086 20.7893 3.58578 20.4142C3.21071 20.0391 3 19.5304 3 19V11.646C2.35431 10.916 1.99855 9.97461 2 9V8H2.008C2.00525 7.77764 2.07707 7.56077 2.212 7.384L4.9 3.8C5.08629 3.55161 5.32786 3.35 5.60557 3.21115C5.88328 3.07229 6.18951 3 6.5 3H17.5ZM15 11.646C14.625 12.0721 14.1635 12.4133 13.6461 12.6468C13.1288 12.8802 12.5676 13.0007 12 13C11.4324 13.0007 10.8712 12.8802 10.3539 12.6468C9.83654 12.4133 9.37497 12.0721 9 11.646C8.54011 12.169 7.95135 12.5625 7.29224 12.7874C6.63314 13.0123 5.92664 13.0608 5.243 12.928L5 12.874V19H19V12.874L18.757 12.928C18.0733 13.0607 17.3667 13.012 16.7076 12.7869C16.0485 12.5619 15.4598 12.1692 15 11.646ZM20 9H16C15.9977 9.51898 16.1972 10.0185 16.5564 10.3932C16.9156 10.7678 17.4063 10.9881 17.9249 11.0075C18.4436 11.027 18.9494 10.8441 19.3357 10.4975C19.722 10.1509 19.9584 9.6677 19.995 9.15L20 9ZM14 9H10C9.99767 9.51898 10.1972 10.0185 10.5564 10.3932C10.9156 10.7678 11.4063 10.9881 11.9249 11.0075C12.4436 11.027 12.9494 10.8441 13.3357 10.4975C13.722 10.1509 13.9584 9.6677 13.995 9.15L14 9ZM8 9H4C3.99767 9.51898 4.19718 10.0185 4.55638 10.3932C4.91557 10.7678 5.40631 10.9881 5.92494 11.0075C6.44356 11.027 6.94944 10.8441 7.33571 10.4975C7.72199 10.1509 7.95839 9.6677 7.995 9.15L8 9ZM17.5 5H6.5L5 7H19L17.5 5Z" fill="#F0F0F0"/>
</g>
<defs>
<clipPath id="clip0_103_38">
<rect width="24" height="24" fill="white"/>
</clipPath>
</defs>
</svg>
