<svg width="24" height="24" viewBox="0 0 24 24" fill="none" xmlns="http://www.w3.org/2000/svg">
<g clip-path="url(#clip0_103_54)">
<path d="M12.582 3.489C14.141 2.296 15.978 1.595 17.5 2.474C19.022 3.352 19.334 5.294 19.08 7.24C19.05 7.481 19.009 7.729 18.959 7.982C19.203 8.066 19.439 8.155 19.662 8.248C21.474 9.002 23 10.243 23 12C23 13.757 21.474 14.998 19.662 15.752C19.438 15.845 19.203 15.934 18.959 16.018C19.009 16.271 19.049 16.518 19.08 16.76C19.334 18.706 19.022 20.648 17.5 21.526C15.979 22.405 14.14 21.704 12.582 20.512C12.383 20.3592 12.1889 20.2001 12 20.035C11.805 20.205 11.611 20.364 11.418 20.512C9.86 21.704 8.022 22.405 6.5 21.526C4.979 20.648 4.667 18.706 4.92 16.76C4.95277 16.5114 4.99346 16.264 5.042 16.018C4.797 15.934 4.562 15.845 4.338 15.752C2.526 14.998 1 13.757 1 12C1 10.243 2.526 9.002 4.338 8.248C4.562 8.155 4.798 8.066 5.042 7.982C4.992 7.729 4.952 7.482 4.92 7.24C4.667 5.294 4.979 3.352 6.5 2.474C8.022 1.595 9.86 2.296 11.418 3.488C11.611 3.636 11.805 3.795 12 3.965C12.195 3.795 12.39 3.636 12.582 3.489ZM6.98 16.537C6.95 16.702 6.925 16.863 6.904 17.018C6.671 18.811 7.11 19.568 7.501 19.794C7.893 20.02 8.768 20.022 10.204 18.924C10.3329 18.8249 10.4593 18.7226 10.583 18.617C10.0897 18.0578 9.62547 17.4737 9.192 16.867C8.44951 16.7949 7.71121 16.6847 6.98 16.537ZM17.023 16.537C16.333 16.677 15.595 16.789 14.811 16.867C14.351 17.507 13.886 18.091 13.42 18.617C13.547 18.726 13.674 18.827 13.798 18.923C15.234 20.022 16.11 20.02 16.501 19.794C16.893 19.568 17.331 18.811 17.098 17.018C17.0771 16.8571 17.0521 16.6967 17.023 16.537ZM12 9C11.408 9 10.84 9.018 10.298 9.051C9.998 9.504 9.698 9.988 9.402 10.501C9.11773 10.9926 8.8486 11.4929 8.595 12.001C8.837 12.487 9.106 12.987 9.402 13.5C9.698 14.013 9.997 14.496 10.298 14.95C11.432 15.0168 12.569 15.0168 13.703 14.95C14.003 14.496 14.303 14.013 14.598 13.5C14.8826 13.0084 15.1521 12.5081 15.406 12C15.1521 11.4919 14.8826 10.9916 14.598 10.5C14.3146 10.008 14.0161 9.52472 13.703 9.051C13.136 9.01676 12.5681 8.99975 12 9ZM5.56 9.92C5.40724 9.97457 5.25586 10.0329 5.106 10.095C3.436 10.789 3 11.548 3 12C3 12.452 3.437 13.211 5.106 13.905C5.251 13.965 5.403 14.024 5.56 14.08C5.79794 13.3731 6.07196 12.6788 6.381 12C6.07232 11.3211 5.79763 10.6269 5.56 9.92ZM18.44 9.92C18.2024 10.6269 17.9287 11.3211 17.62 12C17.944 12.717 18.218 13.413 18.44 14.08C18.5928 14.0255 18.7442 13.9672 18.894 13.905C20.564 13.211 21 12.452 21 12C21 11.548 20.564 10.79 18.894 10.095C18.7442 10.0328 18.5928 9.97445 18.44 9.92ZM12 10.5C12.3978 10.5 12.7794 10.658 13.0607 10.9393C13.342 11.2206 13.5 11.6022 13.5 12C13.5 12.3978 13.342 12.7794 13.0607 13.0607C12.7794 13.342 12.3978 13.5 12 13.5C11.6022 13.5 11.2206 13.342 10.9393 13.0607C10.658 12.7794 10.5 12.3978 10.5 12C10.5 11.6022 10.658 11.2206 10.9393 10.9393C11.2206 10.658 11.6022 10.5 12 10.5ZM7.5 4.206C7.109 4.432 6.67 5.189 6.903 6.982C6.923 7.138 6.949 7.298 6.979 7.463C7.668 7.323 8.407 7.211 9.191 7.133C9.62436 6.52621 10.0886 5.9421 10.582 5.383C10.4583 5.27782 10.3319 5.17578 10.203 5.077C8.767 3.978 7.892 3.98 7.5 4.206ZM16.5 4.206C16.109 3.98 15.233 3.979 13.797 5.077C13.6684 5.17577 13.5424 5.2778 13.419 5.383C13.885 5.909 14.351 6.494 14.809 7.133C15.593 7.211 16.333 7.323 17.022 7.463C17.0511 7.30366 17.0761 7.14361 17.097 6.983C17.331 5.19 16.892 4.432 16.5 4.206Z" fill="#F0F0F0"/>
</g>
<defs>
<clipPath id="clip0_103_54">
<rect width="24" height="24" fill="white"/>
</clipPath>
</defs>
</svg>
