<svg width="24" height="24" viewBox="0 0 24 24" fill="none" xmlns="http://www.w3.org/2000/svg">
<g clip-path="url(#clip0_103_62)">
<path fill-rule="evenodd" clip-rule="evenodd" d="M17 2C17.7652 1.99996 18.5015 2.29233 19.0583 2.81728C19.615 3.34224 19.9501 4.06011 19.995 4.824L20 5V17C20.2246 16.9995 20.4428 17.0747 20.6195 17.2134C20.7962 17.3521 20.921 17.5462 20.9739 17.7645C21.0268 17.9828 21.0047 18.2125 20.9111 18.4167C20.8175 18.6209 20.6579 18.7876 20.458 18.89L20.351 18.936L12.351 21.936C12.1709 22.0036 11.975 22.0179 11.787 21.977L11.649 21.937L3.649 18.937C3.43888 18.8587 3.26115 18.7121 3.14437 18.5207C3.02759 18.3293 2.97853 18.1042 3.00506 17.8816C3.03159 17.6589 3.13218 17.4516 3.29068 17.293C3.44917 17.1344 3.65637 17.0337 3.879 17.007L4 17V5C3.99996 4.23479 4.29232 3.49849 4.81728 2.94174C5.34224 2.38499 6.06011 2.04989 6.824 2.005L7 2H17ZM17 4H7C6.73478 4 6.48043 4.10536 6.29289 4.29289C6.10536 4.48043 6 4.73478 6 5V17.682L12 19.932L18 17.682V5C18 4.73478 17.8946 4.48043 17.7071 4.29289C17.5196 4.10536 17.2652 4 17 4ZM12 5C12.2652 5 12.5196 5.10536 12.7071 5.29289C12.8946 5.48043 13 5.73478 13 6V7H15C15.2652 7 15.5196 7.10536 15.7071 7.29289C15.8946 7.48043 16 7.73478 16 8C16 8.26522 15.8946 8.51957 15.7071 8.70711C15.5196 8.89464 15.2652 9 15 9H13V10H14C14.663 10 15.2989 10.2634 15.7678 10.7322C16.2366 11.2011 16.5 11.837 16.5 12.5C16.5 13.163 16.2366 13.7989 15.7678 14.2678C15.2989 14.7366 14.663 15 14 15H13V16C13 16.2652 12.8946 16.5196 12.7071 16.7071C12.5196 16.8946 12.2652 17 12 17C11.7348 17 11.4804 16.8946 11.2929 16.7071C11.1054 16.5196 11 16.2652 11 16V15H9C8.73478 15 8.48043 14.8946 8.29289 14.7071C8.10536 14.5196 8 14.2652 8 14C8 13.7348 8.10536 13.4804 8.29289 13.2929C8.48043 13.1054 8.73478 13 9 13H11V12H10C9.33696 12 8.70107 11.7366 8.23223 11.2678C7.76339 10.7989 7.5 10.163 7.5 9.5C7.5 8.83696 7.76339 8.20107 8.23223 7.73223C8.70107 7.26339 9.33696 7 10 7H11V6C11 5.73478 11.1054 5.48043 11.2929 5.29289C11.4804 5.10536 11.7348 5 12 5ZM14 12H13V13H14C14.1249 13.0002 14.2454 12.9537 14.3378 12.8695C14.4301 12.7853 14.4876 12.6696 14.4989 12.5452C14.5102 12.4207 14.4745 12.2966 14.3988 12.1972C14.3231 12.0977 14.2129 12.0303 14.09 12.008L14 12ZM11 9H10C9.87505 8.99977 9.75455 9.04633 9.66222 9.13051C9.56988 9.21469 9.51241 9.33039 9.50112 9.45482C9.48983 9.57926 9.52554 9.70341 9.60122 9.80283C9.67689 9.90225 9.78705 9.96974 9.91 9.992L10 10H11V9Z" fill="#F0F0F0"/>
</g>
<defs>
<clipPath id="clip0_103_62">
<rect width="24" height="24" fill="white"/>
</clipPath>
</defs>
</svg>
