<svg width="24" height="24" viewBox="0 0 24 24" fill="none" xmlns="http://www.w3.org/2000/svg">
<g clip-path="url(#clip0_103_34)">
<path fill-rule="evenodd" clip-rule="evenodd" d="M7.121 5.293L3.414 9L4.892 10.478L5.68 9.426C6.278 8.629 7.547 9.087 7.497 10.083L7.104 17.95C7.09723 18.0853 7.11802 18.2206 7.1651 18.3476C7.21219 18.4746 7.2846 18.5907 7.37792 18.6889C7.47125 18.7871 7.58356 18.8653 7.70803 18.9188C7.8325 18.9723 7.96653 18.9999 8.102 19H15.898C16.0335 18.9999 16.1675 18.9723 16.292 18.9188C16.4164 18.8653 16.5288 18.7871 16.6221 18.6889C16.7154 18.5907 16.7878 18.4746 16.8349 18.3476C16.882 18.2206 16.9028 18.0853 16.896 17.95L16.503 10.083C16.453 9.087 17.722 8.629 18.32 9.426L19.108 10.478L20.586 9L16.879 5.293C16.5 4.915 15.95 5 15.465 5C15.114 5.60835 14.6089 6.11349 14.0007 6.46459C13.3924 6.8157 12.7023 7.00036 12 7C11.2977 7.00036 10.6076 6.8157 9.99934 6.46459C9.39105 6.11349 8.886 5.60835 8.535 5C8.049 5 7.499 4.915 7.121 5.293ZM5.707 3.879C6.26948 3.31635 7.03242 3.00017 7.828 3H9.1C9.572 3 9.972 3.297 10.13 3.71C10.2743 4.08904 10.5305 4.41527 10.8644 4.64545C11.1984 4.87563 11.5944 4.99889 12 4.99889C12.4056 4.99889 12.8016 4.87563 13.1356 4.64545C13.4695 4.41527 13.7257 4.08904 13.87 3.71C14.028 3.297 14.428 3 14.9 3H16.172C16.9672 3.00044 17.7298 3.3166 18.292 3.879L22 7.586C22.3749 7.96106 22.5856 8.46967 22.5856 9C22.5856 9.53033 22.3749 10.0389 22 10.414L20.522 11.892C20.002 12.412 19.276 12.581 18.622 12.418L18.894 17.85C18.9143 18.2561 18.8519 18.662 18.7105 19.0432C18.5691 19.4244 18.3517 19.7729 18.0715 20.0675C17.7913 20.3621 17.4542 20.5967 17.0805 20.757C16.7069 20.9173 16.3046 21 15.898 21H8.102C7.69543 21 7.2931 20.9173 6.91946 20.757C6.54582 20.5967 6.20866 20.3621 5.92846 20.0675C5.64826 19.7729 5.43086 19.4244 5.28948 19.0432C5.1481 18.662 5.08567 18.2561 5.106 17.85L5.378 12.418C5.04286 12.5023 4.69158 12.4982 4.35853 12.4059C4.02548 12.3137 3.72207 12.1367 3.478 11.892L2 10.414C1.62506 10.0389 1.41443 9.53033 1.41443 9C1.41443 8.46967 1.62506 7.96106 2 7.586L5.707 3.879Z" fill="#F0F0F0"/>
</g>
<defs>
<clipPath id="clip0_103_34">
<rect width="24" height="24" fill="white"/>
</clipPath>
</defs>
</svg>
