<svg width="24" height="24" viewBox="0 0 24 24" fill="none" xmlns="http://www.w3.org/2000/svg">
<g clip-path="url(#clip0_102_3)">
<path fill-rule="evenodd" clip-rule="evenodd" d="M19.071 3.93C19.3159 3.93003 19.5523 4.01996 19.7354 4.18272C19.9184 4.34548 20.0353 4.56975 20.064 4.813L20.071 4.929V10.586C20.0711 10.7226 20.0431 10.8577 19.989 10.9831C19.9348 11.1085 19.8555 11.2214 19.756 11.315L19.666 11.39L12.468 16.71L13.414 17.657C13.5863 17.8291 13.6899 18.0581 13.7054 18.3011C13.7209 18.5442 13.6471 18.7845 13.498 18.977L13.414 19.071L12 20.485C11.8672 20.6181 11.6995 20.711 11.5162 20.7531C11.333 20.7952 11.1416 20.7847 10.964 20.723L10.846 20.673L8.662 19.581L7.05 21.193C6.87781 21.3652 6.64871 21.4686 6.40568 21.4839C6.16265 21.4992 5.9224 21.4253 5.73 21.276L5.636 21.193L2.808 18.364C2.63582 18.1918 2.53239 17.9627 2.51711 17.7197C2.50183 17.4767 2.57575 17.2364 2.725 17.044L2.808 16.95L4.419 15.338L3.328 13.155C3.24362 12.9868 3.20844 12.7981 3.22648 12.6108C3.24452 12.4235 3.31507 12.245 3.43 12.096L3.515 12L4.929 10.586C5.10119 10.4138 5.33029 10.3104 5.57332 10.2951C5.81634 10.2798 6.05659 10.3537 6.249 10.503L6.343 10.586L7.29 11.533L12.61 4.335C12.6912 4.22509 12.794 4.13297 12.9122 4.06435C13.0303 3.99572 13.1613 3.95204 13.297 3.936L13.414 3.929H19.071V3.93ZM5.636 12.706L5.439 12.904L6.531 15.088C6.6247 15.2758 6.65697 15.4882 6.62323 15.6953C6.58949 15.9024 6.49145 16.0937 6.343 16.242L4.93 17.657L6.344 19.071L7.759 17.657C7.90742 17.5087 8.09872 17.4109 8.30583 17.3773C8.51293 17.3437 8.72534 17.3762 8.913 17.47L11.097 18.562L11.294 18.364L5.637 12.707L5.636 12.706ZM18.071 5.93H13.92L8.72 12.963L11.038 15.28L18.071 10.082V5.93Z" fill="black"/>
</g>
<defs>
<clipPath id="clip0_102_3">
<rect width="24" height="24" fill="white"/>
</clipPath>
</defs>
</svg>
