<svg width="24" height="24" viewBox="0 0 24 24" fill="none" xmlns="http://www.w3.org/2000/svg">
<g clip-path="url(#clip0_102_39)">
<path fill-rule="evenodd" clip-rule="evenodd" d="M14.41 2.293C15.3787 2.53289 16.3057 2.91719 17.16 3.433C17.3313 3.53635 17.4676 3.6887 17.5514 3.87036C17.6352 4.05201 17.6626 4.25462 17.63 4.452C17.517 5.141 17.689 5.668 18.01 5.99C18.332 6.312 18.86 6.483 19.548 6.37C19.7455 6.33722 19.9484 6.36449 20.1302 6.44829C20.3121 6.53208 20.4646 6.66854 20.568 6.84C21.0838 7.6943 21.4681 8.62134 21.708 9.59C21.7563 9.78434 21.7451 9.9887 21.676 10.1766C21.6068 10.3645 21.4828 10.5274 21.32 10.644C20.752 11.051 20.5 11.544 20.5 12C20.5 12.456 20.752 12.95 21.32 13.357C21.4826 13.4736 21.6065 13.6362 21.6756 13.8239C21.7448 14.0117 21.7561 14.2158 21.708 14.41C21.4681 15.3787 21.0838 16.3057 20.568 17.16C20.4646 17.3315 20.3121 17.4679 20.1302 17.5517C19.9484 17.6355 19.7455 17.6628 19.548 17.63C18.859 17.517 18.333 17.689 18.011 18.01C17.689 18.332 17.517 18.86 17.631 19.548C17.6638 19.7455 17.6365 19.9484 17.5527 20.1302C17.4689 20.3121 17.3325 20.4646 17.161 20.568C16.3061 21.084 15.3784 21.4683 14.409 21.708C14.2148 21.7561 14.0107 21.7448 13.823 21.6756C13.6352 21.6065 13.4726 21.4826 13.356 21.32C12.95 20.752 12.456 20.5 12 20.5C11.545 20.5 11.05 20.752 10.644 21.32C10.5274 21.4826 10.3648 21.6065 10.1771 21.6756C9.98935 21.7448 9.7852 21.7561 9.59101 21.708C8.62166 21.4683 7.69393 21.084 6.83901 20.568C6.66755 20.4646 6.53109 20.3121 6.44729 20.1302C6.3635 19.9484 6.33622 19.7455 6.36901 19.548C6.48301 18.86 6.31201 18.333 5.98901 18.011C5.66801 17.689 5.14101 17.517 4.45201 17.631C4.25463 17.6636 4.05202 17.6362 3.87037 17.5524C3.68871 17.4686 3.53636 17.3323 3.43301 17.161C2.91703 16.3061 2.53272 15.3784 2.29301 14.409C2.24493 14.2148 2.25621 14.0107 2.32537 13.8229C2.39454 13.6352 2.51842 13.4726 2.68101 13.356C3.24801 12.95 3.50101 12.456 3.50101 12C3.50101 11.545 3.24801 11.05 2.68101 10.644C2.51842 10.5274 2.39454 10.3648 2.32537 10.1771C2.25621 9.98934 2.24493 9.78519 2.29301 9.591C2.5328 8.62199 2.91711 7.69459 3.43301 6.84C3.53636 6.66872 3.68871 6.53238 3.87037 6.44859C4.05202 6.36481 4.25463 6.33743 4.45201 6.37C5.14101 6.483 5.66801 6.312 5.99001 5.99C6.31201 5.668 6.48301 5.14 6.37001 4.452C6.33744 4.25462 6.36481 4.05201 6.4486 3.87036C6.53239 3.6887 6.66873 3.53635 6.84001 3.433C7.6943 2.9172 8.62134 2.5329 9.59001 2.293C9.78434 2.24471 9.9887 2.25587 10.1766 2.32505C10.3645 2.39423 10.5274 2.51823 10.644 2.681C11.051 3.248 11.544 3.501 12 3.501C12.456 3.501 12.95 3.248 13.357 2.681C13.4736 2.51842 13.6362 2.39454 13.8239 2.32537C14.0117 2.2562 14.2158 2.24492 14.41 2.293ZM14.512 4.403C13.855 5.06 12.992 5.5 12 5.5C11.008 5.5 10.145 5.061 9.48801 4.402C9.11607 4.52506 8.75375 4.67548 8.40401 4.852C8.40501 5.782 8.10501 6.702 7.40401 7.404C6.70301 8.105 5.78201 8.405 4.85201 8.404C4.67601 8.752 4.52601 9.114 4.40201 9.488C5.06101 10.145 5.50001 11.008 5.50001 12C5.50001 12.992 5.06101 13.855 4.40201 14.512C4.52601 14.886 4.67701 15.249 4.85201 15.597C5.78201 15.595 6.70201 15.895 7.40401 16.597C8.10501 17.297 8.40501 18.218 8.40401 19.148C8.75101 19.324 9.11401 19.474 9.48801 19.598C10.145 18.939 11.008 18.5 12 18.5C12.992 18.5 13.855 18.94 14.512 19.598C14.8843 19.475 15.2469 19.3246 15.597 19.148C15.595 18.218 15.895 17.298 16.597 16.596C17.297 15.895 18.218 15.596 19.148 15.596C19.324 15.249 19.474 14.886 19.598 14.512C18.939 13.855 18.5 12.992 18.5 12C18.5 11.008 18.94 10.145 19.598 9.488C19.475 9.11606 19.3245 8.75374 19.148 8.404C18.218 8.405 17.298 8.105 16.596 7.404C15.895 6.703 15.596 5.782 15.596 4.852C15.2463 4.67548 14.8839 4.52607 14.512 4.403ZM12 8C13.0609 8 14.0783 8.42143 14.8284 9.17157C15.5786 9.92172 16 10.9391 16 12C16 13.0609 15.5786 14.0783 14.8284 14.8284C14.0783 15.5786 13.0609 16 12 16C10.9391 16 9.92172 15.5786 9.17158 14.8284C8.42143 14.0783 8.00001 13.0609 8.00001 12C8.00001 10.9391 8.42143 9.92172 9.17158 9.17157C9.92172 8.42143 10.9391 8 12 8ZM12 10C11.4696 10 10.9609 10.2107 10.5858 10.5858C10.2107 10.9609 10 11.4696 10 12C10 12.5304 10.2107 13.0391 10.5858 13.4142C10.9609 13.7893 11.4696 14 12 14C12.5304 14 13.0391 13.7893 13.4142 13.4142C13.7893 13.0391 14 12.5304 14 12C14 11.4696 13.7893 10.9609 13.4142 10.5858C13.0391 10.2107 12.5304 10 12 10Z" fill="black"/>
</g>
<defs>
<clipPath id="clip0_102_39">
<rect width="24" height="24" fill="white"/>
</clipPath>
</defs>
</svg>
