<svg width="24" height="24" viewBox="0 0 24 24" fill="none" xmlns="http://www.w3.org/2000/svg">
<g clip-path="url(#clip0_102_31)">
<path fill-rule="evenodd" clip-rule="evenodd" d="M12 2C10.4087 2 8.88258 2.63214 7.75736 3.75736C6.63215 4.88258 6 6.4087 6 8V9.875L5.1 9.2C4.99495 9.12121 4.8754 9.06388 4.74819 9.03129C4.62097 8.99869 4.48858 8.99148 4.35858 9.01005C4.22858 9.02862 4.10351 9.07262 3.99051 9.13953C3.87751 9.20643 3.7788 9.29494 3.7 9.4C3.62121 9.50506 3.56388 9.62461 3.53129 9.75182C3.4987 9.87903 3.49148 10.0114 3.51005 10.1414C3.52863 10.2714 3.57262 10.3965 3.63953 10.5095C3.70644 10.6225 3.79495 10.7212 3.9 10.8L5.766 12.2C5.322 13.368 4.239 14.59 2.486 15.643C2.37102 15.7136 2.27134 15.8065 2.19285 15.9162C2.11436 16.0259 2.05865 16.1503 2.02901 16.2819C1.99937 16.4135 1.9964 16.5497 2.02027 16.6825C2.04414 16.8153 2.09438 16.942 2.168 17.055C3.286 18.732 5.06 20 7 20C7.677 20 8.203 20.43 8.724 20.809C9.456 21.34 10.423 22 12 22C13.577 22 14.543 21.341 15.275 20.809C15.797 20.429 16.323 20 17 20C18.94 20 20.714 18.732 21.832 17.055C21.9056 16.942 21.9559 16.8153 21.9797 16.6825C22.0036 16.5497 22.0006 16.4135 21.971 16.2819C21.9414 16.1503 21.8856 16.0259 21.8072 15.9162C21.7287 15.8065 21.629 15.7136 21.514 15.643C19.761 14.59 18.678 13.368 18.234 12.2L20.1 10.8C20.3122 10.6409 20.4524 10.404 20.49 10.1414C20.5275 9.87887 20.4591 9.61217 20.3 9.4C20.1409 9.18783 19.904 9.04756 19.6414 9.01005C19.3789 8.97254 19.1122 9.04087 18.9 9.2L18 9.875V8C18 6.4087 17.3679 4.88258 16.2426 3.75736C15.1174 2.63214 13.5913 2 12 2ZM8 8C8 6.93913 8.42143 5.92172 9.17158 5.17157C9.92172 4.42143 10.9391 4 12 4C13.0609 4 14.0783 4.42143 14.8284 5.17157C15.5786 5.92172 16 6.93913 16 8V11C16 13.198 17.42 15.209 19.538 16.735C18.752 17.556 17.825 18 17 18C15.622 18 14.736 18.728 14.1 19.191C13.456 19.659 12.923 20 12 20C11.077 20 10.543 19.659 9.9 19.191C9.265 18.728 8.379 18 7 18C6.174 18 5.248 17.556 4.462 16.735C6.58 15.209 8 13.198 8 11V8Z" fill="black"/>
</g>
<defs>
<clipPath id="clip0_102_31">
<rect width="24" height="24" fill="white"/>
</clipPath>
</defs>
</svg>
