<svg width="24" height="24" viewBox="0 0 24 24" fill="none" xmlns="http://www.w3.org/2000/svg">
<g clip-path="url(#clip0_102_35)">
<path fill-rule="evenodd" clip-rule="evenodd" d="M12 2C13.8785 1.9997 15.71 2.5872 17.2378 3.68014C18.7656 4.77308 19.9131 6.31668 20.5195 8.09459C21.126 9.8725 21.1609 11.7956 20.6194 13.5944C20.0779 15.3931 18.9871 16.9773 17.5 18.125C17.16 18.387 17 18.715 17 19C17 19.5304 16.7893 20.0391 16.4142 20.4142C16.0391 20.7893 15.5304 21 15 21H8.99999C8.46955 21 7.96085 20.7893 7.58577 20.4142C7.2107 20.0391 6.99999 19.5304 6.99999 19C6.99999 18.716 6.83999 18.387 6.49999 18.125C5.01285 16.9773 3.9221 15.3931 3.3806 13.5944C2.8391 11.7956 2.87401 9.8725 3.48043 8.09459C4.08685 6.31668 5.23439 4.77308 6.76219 3.68014C8.29 2.5872 10.1215 1.9997 12 2ZM12 4C10.5614 4.00015 9.15785 4.44352 7.98023 5.26977C6.80262 6.09602 5.90817 7.26502 5.41859 8.61771C4.92901 9.97039 4.86807 11.4411 5.24408 12.8296C5.62008 14.2182 6.41476 15.4572 7.51999 16.378L7.72399 16.542C8.43299 17.091 8.99999 17.96 8.99999 19H9.74999V18C9.74999 17.7348 9.85534 17.4804 10.0429 17.2929C10.2304 17.1054 10.4848 17 10.75 17C11.0152 17 11.2696 17.1054 11.4571 17.2929C11.6446 17.4804 11.75 17.7348 11.75 18V19H12.25V18C12.25 17.7348 12.3553 17.4804 12.5429 17.2929C12.7304 17.1054 12.9848 17 13.25 17C13.5152 17 13.7696 17.1054 13.9571 17.2929C14.1446 17.4804 14.25 17.7348 14.25 18V19H15C15 18.029 15.494 17.207 16.137 16.656L16.277 16.542C17.4337 15.6494 18.2822 14.4173 18.7035 13.0183C19.1247 11.6193 19.0977 10.1235 18.6261 8.74066C18.1545 7.35779 17.2621 6.15715 16.0738 5.307C14.8855 4.45686 13.461 3.99984 12 4ZM8.49999 9C9.16303 9 9.79891 9.26339 10.2678 9.73223C10.7366 10.2011 11 10.837 11 11.5C11 12.163 10.7366 12.7989 10.2678 13.2678C9.79891 13.7366 9.16303 14 8.49999 14C7.83695 14 7.20106 13.7366 6.73222 13.2678C6.26338 12.7989 5.99999 12.163 5.99999 11.5C5.99999 10.837 6.26338 10.2011 6.73222 9.73223C7.20106 9.26339 7.83695 9 8.49999 9ZM15.5 9C16.163 9 16.7989 9.26339 17.2678 9.73223C17.7366 10.2011 18 10.837 18 11.5C18 12.163 17.7366 12.7989 17.2678 13.2678C16.7989 13.7366 16.163 14 15.5 14C14.8369 14 14.2011 13.7366 13.7322 13.2678C13.2634 12.7989 13 12.163 13 11.5C13 10.837 13.2634 10.2011 13.7322 9.73223C14.2011 9.26339 14.8369 9 15.5 9ZM8.49999 11C8.36738 11 8.2402 11.0527 8.14643 11.1464C8.05266 11.2402 7.99999 11.3674 7.99999 11.5C7.99999 11.6326 8.05266 11.7598 8.14643 11.8536C8.2402 11.9473 8.36738 12 8.49999 12C8.63259 12 8.75977 11.9473 8.85354 11.8536C8.94731 11.7598 8.99999 11.6326 8.99999 11.5C8.99999 11.3674 8.94731 11.2402 8.85354 11.1464C8.75977 11.0527 8.63259 11 8.49999 11ZM15.5 11C15.3674 11 15.2402 11.0527 15.1464 11.1464C15.0527 11.2402 15 11.3674 15 11.5C15 11.6326 15.0527 11.7598 15.1464 11.8536C15.2402 11.9473 15.3674 12 15.5 12C15.6326 12 15.7598 11.9473 15.8535 11.8536C15.9473 11.7598 16 11.6326 16 11.5C16 11.3674 15.9473 11.2402 15.8535 11.1464C15.7598 11.0527 15.6326 11 15.5 11Z" fill="black"/>
</g>
<defs>
<clipPath id="clip0_102_35">
<rect width="24" height="24" fill="white"/>
</clipPath>
</defs>
</svg>
